<?xml version="1.0" standalone="no"?>
<!DOCTYPE svg PUBLIC "-//W3C//DTD SVG 20010904//EN"
 "http://www.w3.org/TR/2001/REC-SVG-20010904/DTD/svg10.dtd">
<svg version="1.0" xmlns="http://www.w3.org/2000/svg"
 width="750.000000pt" height="750.000000pt" viewBox="0 0 750.000000 750.000000"
 preserveAspectRatio="xMidYMid meet">

<g transform="translate(0.000000,750.000000) scale(0.100000,-0.100000)"
fill="#000000" stroke="none">
<path d="M3597 7055 c-132 -27 -219 -82 -437 -280 -236 -214 -311 -259 -462
-277 -96 -11 -320 0 -473 24 -131 20 -292 -5 -413 -64 -73 -36 -172 -135 -215
-215 -37 -69 -85 -220 -98 -308 -18 -122 -79 -358 -111 -424 -49 -102 -177
-215 -371 -326 -287 -164 -400 -274 -453 -440 -37 -117 -40 -192 -14 -321 13
-60 27 -113 31 -118 5 -6 9 -16 9 -24 0 -19 60 -169 114 -284 65 -139 86 -210
86 -296 0 -101 -18 -164 -115 -397 -45 -110 -87 -222 -93 -250 -53 -241 -32
-408 71 -562 65 -97 137 -149 427 -306 271 -146 336 -226 404 -494 64 -250
114 -419 144 -478 91 -182 257 -289 467 -302 50 -3 164 0 255 7 310 22 428 24
499 5 103 -27 150 -56 326 -207 240 -206 280 -236 373 -280 93 -43 203 -63
287 -52 138 18 284 107 455 276 63 63 135 130 160 150 69 55 168 105 240 122
87 21 318 21 457 0 202 -30 422 -3 539 67 176 104 266 273 333 623 59 303 132
426 316 529 270 150 411 245 482 320 176 191 189 440 40 757 -140 297 -150
329 -151 490 -1 134 -1 136 38 235 21 55 62 152 91 216 97 212 123 331 105
486 -5 51 -19 116 -31 145 -27 69 -98 167 -157 218 -50 42 -242 163 -358 224
-38 20 -113 70 -166 111 -89 68 -101 82 -145 162 -49 90 -91 230 -127 416 -20
108 -53 211 -100 311 -63 138 -194 239 -364 282 -74 18 -284 16 -585 -6 -199
-15 -239 -10 -345 40 -97 46 -176 105 -297 220 -142 136 -202 183 -287 226
-123 62 -239 77 -381 49z m538 -685 c185 -28 275 -50 458 -110 186 -62 469
-199 623 -302 366 -245 668 -571 873 -945 162 -294 281 -670 313 -990 14 -137
20 -503 9 -517 -5 -6 -11 -51 -15 -101 -4 -49 -13 -117 -21 -151 -8 -34 -15
-80 -16 -102 -2 -23 -6 -42 -10 -42 -4 0 -10 -17 -14 -37 -10 -54 -98 -320
-128 -384 -73 -158 -123 -259 -152 -304 -158 -247 -256 -373 -422 -542 -388
-395 -944 -670 -1523 -753 -139 -20 -182 -22 -415 -17 -224 4 -280 9 -400 31
-279 53 -497 126 -737 248 -360 183 -654 422 -900 733 -203 257 -390 620 -464
901 -8 33 -22 84 -30 114 -72 264 -92 709 -48 1025 34 238 140 570 255 798
252 498 653 908 1139 1165 323 170 647 265 1027 302 143 14 441 4 598 -20z"/>
<path d="M3516 6191 c-17 -6 -17 -8 -4 -14 13 -5 17 -32 23 -146 l8 -141 24 2
c31 3 37 16 23 53 -6 16 -13 76 -16 132 -4 81 -2 103 8 103 9 0 9 3 -2 10 -17
11 -37 12 -64 1z"/>
<path d="M3729 6177 c-54 -44 -75 -129 -47 -194 17 -40 59 -83 80 -83 24 0 23
12 -2 27 -10 7 -26 36 -34 64 -18 59 -8 126 24 171 25 34 13 43 -21 15z"/>
<path d="M3830 6190 l-35 -7 38 -2 c31 -1 41 -7 57 -33 11 -18 23 -48 26 -66
8 -40 -19 -142 -41 -155 -19 -10 -20 -27 -2 -27 36 0 87 90 87 154 0 44 -27
115 -43 116 -5 0 -15 7 -23 15 -9 8 -18 14 -22 14 -4 -1 -23 -5 -42 -9z"/>
<path d="M4051 6183 c32 -8 34 -94 4 -175 -8 -20 -15 -53 -17 -73 -1 -20 -9
-40 -18 -45 -16 -10 -15 -10 32 -14 9 -1 12 12 10 40 -3 40 33 174 47 174 3 0
35 -56 71 -125 35 -69 66 -125 70 -125 12 0 40 139 40 203 0 53 3 67 15 67 8
0 15 5 15 10 0 6 -7 10 -15 10 -8 0 -16 6 -16 13 -3 34 -18 -78 -18 -140 -1
-52 -5 -73 -13 -73 -7 0 -38 46 -68 102 -63 117 -98 159 -132 157 -15 -1 -17
-3 -7 -6z"/>
<path d="M3403 6163 c-20 -7 -15 -23 7 -23 11 0 20 4 20 9 0 13 -12 19 -27 14z"/>
<path d="M3218 6143 c-21 -9 -38 -22 -38 -29 0 -19 13 -17 43 6 14 11 34 20
45 20 17 0 22 -8 27 -47 3 -27 13 -78 21 -115 8 -37 14 -78 14 -92 0 -18 5
-26 18 -26 25 0 49 18 36 28 -9 6 -54 205 -54 240 0 6 9 12 19 12 11 0 23 5
26 10 10 16 -115 10 -157 -7z"/>
<path d="M3006 6010 c-4 -51 -9 -105 -13 -120 l-5 -29 38 10 c50 14 62 25 26
24 -26 0 -27 2 -25 49 2 66 15 76 43 31 13 -21 40 -57 62 -82 21 -24 38 -50
38 -58 0 -11 7 -12 32 -4 44 12 54 25 26 33 -19 5 -63 53 -194 212 l-21 26 -7
-92z"/>
<path d="M4540 6060 c0 -5 -40 -52 -89 -104 -71 -74 -89 -98 -84 -115 9 -34
23 -35 23 -2 0 18 8 35 20 44 10 7 38 37 61 65 24 29 46 52 51 52 4 0 8 -25 8
-55 l0 -55 -37 -1 -38 -2 40 -6 40 -6 0 -64 c0 -62 1 -65 28 -72 27 -7 28 -6
23 19 -3 15 -8 72 -11 127 -8 136 -15 185 -26 185 -5 0 -9 -4 -9 -10z"/>
<path d="M2757 5993 c-16 -4 -17 -6 -3 -16 16 -12 86 -148 86 -167 0 -16 -12
-13 -124 41 -74 35 -117 49 -139 47 -36 -3 -39 -20 -5 -28 15 -4 26 -17 32
-38 10 -36 26 -43 26 -12 0 11 4 20 9 20 4 0 61 -25 125 -55 64 -30 121 -55
126 -55 18 0 10 40 -10 52 -11 7 -20 23 -20 35 0 12 -7 28 -15 37 -8 8 -15 18
-15 23 -1 4 -9 26 -20 48 -11 22 -19 48 -20 58 0 17 -2 18 -33 10z"/>
<path d="M4750 5859 c-30 -61 -65 -119 -78 -129 l-22 -18 52 -34 c91 -57 127
-73 140 -60 9 9 6 12 -14 12 -14 0 -28 7 -32 15 -3 8 -14 15 -24 15 -10 0 -27
9 -38 21 -18 20 -18 22 39 135 56 108 65 143 42 151 -6 2 -35 -47 -65 -108z"/>
<path d="M2977 5834 c-4 -4 -7 -22 -7 -40 0 -33 0 -33 32 -22 27 10 29 12 13
18 -11 4 -22 17 -25 29 -3 13 -8 19 -13 15z"/>
<path d="M2636 5768 c3 -13 13 -30 20 -39 8 -8 14 -24 14 -35 1 -28 35 -65 54
-58 23 9 20 24 -4 24 -11 0 -23 8 -27 18 -3 9 -15 38 -27 64 -22 48 -43 66
-30 26z"/>
<path d="M3470 5740 c-63 -9 -144 -24 -180 -33 -126 -30 -398 -127 -430 -153
-8 -6 -39 -24 -67 -38 -29 -14 -108 -63 -175 -108 -97 -65 -156 -115 -279
-238 -217 -217 -321 -373 -463 -692 -9 -20 -16 -45 -16 -55 0 -10 -4 -23 -9
-28 -6 -6 -14 -28 -20 -50 -5 -22 -21 -84 -34 -137 -58 -227 -68 -464 -33
-743 9 -66 16 -121 16 -122 0 -2 5 -3 10 -3 15 0 12 100 -5 214 -8 55 -15 139
-15 188 0 96 23 316 41 388 28 112 42 169 52 218 6 28 15 52 19 52 4 0 8 7 8
16 0 16 4 26 60 149 140 308 354 573 624 772 117 86 289 187 381 223 33 13 65
26 70 30 11 8 77 31 150 53 165 51 407 87 575 87 120 0 359 -30 470 -59 41
-11 95 -25 120 -31 25 -7 59 -18 77 -26 17 -8 35 -14 39 -14 26 0 284 -133
381 -196 283 -184 554 -491 688 -778 63 -136 70 -153 103 -256 54 -166 62
-198 69 -262 3 -35 12 -80 20 -102 15 -45 18 -389 3 -471 -5 -27 -14 -86 -20
-130 -6 -44 -14 -89 -19 -100 -15 -31 -51 -161 -51 -182 0 -10 -7 -27 -15 -37
-8 -11 -15 -26 -15 -33 0 -41 -135 -302 -213 -413 -303 -430 -708 -704 -1212
-819 -122 -28 -317 -51 -428 -51 -206 0 -503 57 -703 135 -370 144 -714 418
-929 740 -129 193 -265 495 -281 625 -10 75 -13 83 -30 69 -11 -9 -14 -22 -10
-43 7 -37 44 -162 56 -191 4 -11 16 -42 25 -70 24 -67 123 -266 171 -342 153
-240 358 -455 570 -598 331 -223 678 -336 1078 -352 424 -17 881 124 1226 376
204 149 368 319 501 517 63 94 149 248 149 268 0 5 6 17 13 25 8 9 24 45 37
81 13 36 26 70 30 75 4 6 11 28 15 50 4 22 10 45 15 50 12 16 48 188 66 312
27 191 10 528 -35 703 -35 134 -92 309 -102 316 -5 3 -9 16 -9 29 0 13 -4 26
-9 29 -5 3 -21 32 -36 63 -34 72 -119 214 -160 269 -16 23 -38 52 -47 65 -49
68 -174 203 -261 281 -248 222 -568 386 -902 462 -209 47 -508 58 -715 26z"/>
<path d="M5158 5738 c3 -12 -1 -26 -9 -32 -8 -6 -40 -46 -72 -88 -32 -42 -67
-80 -78 -83 -10 -4 -19 -10 -19 -15 0 -10 49 -45 53 -39 23 37 80 119 83 119
3 0 20 -14 38 -31 19 -16 42 -36 52 -44 18 -13 17 -15 -12 -57 -18 -23 -42
-45 -54 -48 -22 -5 -22 -5 5 -32 27 -28 45 -29 45 -3 0 7 34 57 76 109 51 66
74 103 72 118 -4 31 -26 34 -38 4 -12 -33 -51 -86 -63 -86 -14 0 -106 74 -106
85 -1 6 19 31 43 57 39 43 42 49 27 61 -9 8 -23 17 -32 20 -13 4 -16 1 -11
-15z"/>
<path d="M2266 5648 c4 -24 12 -56 20 -73 l12 -30 1 43 c1 30 5 42 16 42 8 0
15 -5 15 -11 0 -5 14 -15 30 -20 37 -13 37 -23 4 -56 -19 -19 -28 -23 -37 -14
-22 22 -29 11 -22 -36 8 -59 25 -81 25 -33 0 27 8 41 38 67 20 18 41 33 45 33
16 0 85 -40 90 -52 4 -9 12 -5 26 12 17 22 18 25 4 28 -9 2 -68 35 -133 73
-64 38 -122 69 -128 69 -9 0 -10 -13 -6 -42z"/>
<path d="M4848 5643 c7 -3 16 -2 19 1 4 3 -2 6 -13 5 -11 0 -14 -3 -6 -6z"/>
<path d="M2108 5539 c-15 -4 -50 -26 -78 -50 l-51 -43 24 -12 c32 -17 177
-181 177 -200 0 -13 4 -12 25 3 38 28 36 38 -16 78 -30 22 -48 43 -45 51 3 8
2 13 -3 11 -4 -1 -29 17 -55 41 -38 35 -45 46 -36 61 11 22 55 32 86 21 17 -7
24 -20 29 -54 9 -55 21 -59 34 -10 19 70 -26 121 -91 103z"/>
<path d="M5440 5504 c0 -9 -44 -61 -97 -116 -91 -92 -96 -99 -80 -115 15 -15
19 -13 58 30 22 26 65 70 95 99 61 58 72 81 50 103 -19 19 -26 19 -26 -1z"/>
<path d="M4237 5395 c-32 -36 -84 -98 -114 -137 -31 -40 -65 -82 -76 -92 -14
-13 -16 -21 -8 -24 13 -4 40 21 91 88 19 24 68 82 108 129 39 46 72 88 72 93
0 18 -18 4 -73 -57z"/>
<path d="M3230 5429 c0 -6 46 -65 102 -133 95 -113 144 -163 153 -154 5 5
-228 285 -242 292 -7 3 -13 1 -13 -5z"/>
<path d="M2336 5407 c-8 -32 -7 -37 8 -37 18 0 27 47 11 54 -7 2 -16 -5 -19
-17z"/>
<path d="M1906 5353 c-4 -13 -14 -23 -22 -23 -8 0 -14 -4 -14 -10 0 -5 9 -10
19 -10 11 0 53 -25 93 -55 40 -30 76 -55 80 -55 14 0 9 -108 -6 -123 -25 -25
-73 -40 -88 -28 -7 6 -43 34 -80 61 -38 28 -75 62 -84 75 -24 37 -27 35 -62
-37 -2 -5 6 -8 18 -8 12 0 50 -22 84 -49 89 -71 127 -87 165 -71 54 22 81 64
81 125 l0 54 -84 66 c-50 40 -86 76 -88 89 -4 21 -4 21 -12 -1z"/>
<path d="M5458 5315 c-54 -37 -70 -72 -62 -140 8 -65 35 -111 82 -138 l32 -19
50 32 c59 38 69 61 41 92 -21 22 -21 22 -21 1 0 -24 -63 -83 -89 -83 -26 0
-61 42 -67 82 -8 46 18 101 63 136 27 20 47 26 88 26 60 1 90 -18 100 -65 4
-16 11 -29 16 -29 14 0 11 -17 -6 -34 -8 -8 -15 -21 -15 -28 0 -8 4 -7 11 5 5
9 16 17 24 17 24 0 26 16 5 40 -11 13 -20 28 -20 34 0 6 -15 29 -34 50 -31 38
-37 40 -97 44 -56 3 -69 0 -101 -23z"/>
<path d="M3015 5201 c23 -22 114 -71 132 -71 7 0 13 -4 13 -9 0 -5 12 -12 26
-15 15 -4 33 -14 41 -21 8 -8 23 -15 33 -15 10 0 22 -5 26 -11 5 -9 87 -49
100 -49 2 0 4 5 4 10 0 6 -7 10 -15 10 -8 0 -15 4 -15 9 0 10 -332 181 -352
181 -8 0 -5 -7 7 -19z"/>
<path d="M4328 5136 c-143 -74 -222 -126 -190 -126 6 0 35 13 64 28 29 16 100
53 158 82 58 30 118 64 133 77 55 45 -4 23 -165 -61z"/>
<path d="M3716 5096 c-38 -136 -77 -192 -188 -274 -83 -61 -101 -125 -73 -258
6 -26 2 -35 -19 -51 -29 -23 -33 -38 -12 -46 9 -4 14 -23 15 -57 0 -28 3 -55
6 -60 11 -18 -17 -20 -74 -5 -75 19 -157 19 -273 -1 -203 -34 -360 -112 -480
-237 -33 -34 -53 -78 -29 -63 4 3 11 -22 14 -55 3 -34 10 -66 16 -72 6 -6 11
-22 11 -36 0 -15 6 -46 15 -71 21 -67 50 -165 101 -350 25 -91 60 -219 79
-285 18 -66 43 -160 56 -210 12 -49 27 -101 34 -115 7 -14 15 -40 19 -59 3
-19 11 -40 17 -48 13 -15 115 -18 124 -3 3 6 17 7 31 4 26 -7 35 13 9 22 -62
24 54 55 231 61 128 5 174 -5 272 -55 74 -39 48 -44 -189 -37 -154 6 -219 5
-219 -3 0 -22 104 -27 550 -27 468 0 575 6 607 31 16 13 8 14 -72 9 -193 -11
-448 -10 -452 2 -2 6 10 14 26 18 17 4 31 13 31 21 0 8 10 14 23 14 12 0 40 7
62 15 57 20 241 19 330 -3 66 -16 115 -47 115 -72 0 -11 99 -13 117 -2 6 4 14
25 18 47 4 22 11 45 15 50 4 6 11 26 14 45 4 19 14 55 21 80 8 25 21 70 29
100 21 78 54 196 71 255 18 64 39 140 65 240 12 44 27 100 35 125 7 25 16 62
20 83 3 20 10 37 14 37 5 0 12 25 16 55 3 30 10 55 14 55 4 0 13 24 19 53 6
28 14 64 17 79 6 24 0 34 -46 79 -75 73 -248 179 -293 179 -8 0 -30 6 -48 14
-98 42 -261 53 -425 30 l-43 -6 0 73 c0 50 3 69 10 59 7 -12 10 -12 16 4 5 14
0 26 -20 42 -26 23 -26 25 -16 86 5 35 10 78 10 96 0 29 -3 32 -29 32 -28 0
-29 1 -33 63 -3 46 -13 80 -39 131 -38 75 -53 89 -62 55 -5 -18 -9 -20 -21
-10 -8 6 -22 29 -32 49 -19 41 -93 142 -103 142 -3 0 -15 -29 -25 -64z m-220
-603 c3 -16 7 -33 9 -39 5 -16 91 -24 260 -23 199 1 237 7 242 38 4 30 8 35
23 26 7 -4 10 -34 8 -79 l-3 -72 -40 -19 c-36 -18 -62 -20 -251 -20 -188 0
-214 2 -231 18 -11 9 -27 17 -36 17 -14 0 -17 10 -17 53 0 105 21 164 36 100z
m-144 -174 c24 -5 72 -15 108 -22 l65 -12 12 -95 c6 -52 19 -159 27 -236 9
-78 20 -153 26 -168 5 -15 10 -57 10 -94 0 -37 6 -105 14 -152 8 -47 20 -130
26 -185 27 -255 32 -295 46 -370 16 -88 19 -215 5 -215 -5 0 -29 11 -53 25
-108 60 -241 85 -358 66 -114 -19 -161 -30 -183 -46 -12 -8 -32 -15 -44 -15
-20 0 -23 5 -23 44 0 26 -6 51 -15 60 -8 8 -15 26 -15 40 0 14 -12 70 -26 123
-14 54 -34 130 -44 168 -33 125 -59 218 -90 330 -17 61 -35 128 -39 150 -4 22
-16 65 -25 95 -22 70 -39 133 -66 240 l-22 84 27 22 c45 36 196 111 259 129
149 42 293 55 378 34z m1056 -4 c138 -32 190 -50 272 -96 79 -43 122 -72 126
-84 5 -12 -46 -219 -91 -370 -8 -27 -17 -66 -21 -85 -4 -19 -10 -37 -13 -40
-4 -3 -12 -30 -19 -60 -15 -75 -37 -161 -62 -245 -26 -90 -105 -388 -135 -512
-6 -27 -35 -30 -68 -9 -72 46 -308 66 -412 34 -77 -24 -128 -47 -152 -70 -12
-11 -25 -18 -30 -15 -10 6 -1 135 20 302 9 66 23 179 32 250 9 72 22 174 30
228 8 54 15 114 15 135 0 20 7 82 15 137 30 207 45 332 45 389 0 74 17 96 74
97 23 0 61 6 86 13 64 19 209 19 288 1z m-477 -50 c3 -37 -3 -139 -11 -185 -6
-30 -14 -100 -20 -155 -6 -55 -15 -125 -20 -155 -5 -30 -19 -134 -30 -230 -12
-96 -27 -227 -35 -290 -33 -261 -45 -378 -48 -430 -2 -43 -6 -56 -19 -58 -16
-3 -18 5 -18 60 0 35 -6 110 -15 168 -8 58 -21 168 -30 245 -9 77 -25 208 -35
290 -11 83 -26 204 -35 270 -8 66 -19 156 -25 200 -5 44 -14 120 -20 168 -6
49 -10 94 -7 100 6 15 367 17 368 2z m-1261 -190 c5 -14 18 -60 29 -102 19
-76 40 -152 116 -433 20 -74 43 -161 50 -193 14 -62 24 -82 27 -51 0 10 4 -8
8 -41 3 -33 17 -96 30 -140 12 -44 28 -105 36 -135 27 -114 36 -146 50 -173
13 -26 12 -28 -9 -36 -29 -11 -47 -3 -47 21 0 10 -7 43 -16 71 -17 59 -38 132
-54 195 -6 23 -14 41 -18 38 -4 -2 -8 16 -10 40 -1 23 -7 56 -13 71 -7 15 -15
44 -19 63 -5 19 -13 49 -18 65 -20 59 -117 412 -177 642 -17 65 -12 123 11
123 8 0 19 -11 24 -25z m2196 10 c4 -8 12 -15 20 -15 17 0 18 -12 2 -28 -7 -7
-18 -36 -24 -65 -6 -28 -19 -79 -29 -112 -9 -33 -23 -80 -30 -105 -25 -85 -67
-245 -74 -280 -4 -19 -12 -44 -18 -55 -6 -11 -16 -40 -22 -65 -6 -25 -22 -87
-36 -138 -14 -51 -25 -103 -25 -116 0 -14 -4 -26 -10 -28 -5 -1 -14 -27 -20
-57 -5 -30 -15 -60 -21 -68 -7 -7 -12 -38 -13 -67 0 -39 -4 -52 -13 -49 -9 4
-13 -4 -13 -23 0 -46 -12 -57 -46 -44 -26 10 -27 13 -11 21 11 7 17 22 17 45
0 19 5 44 10 55 6 10 14 38 19 61 10 48 39 157 71 263 11 39 27 95 34 125 44
179 70 277 78 295 5 11 16 47 24 80 21 82 40 159 57 226 13 48 23 84 42 147 6
17 24 15 31 -3z"/>
<path d="M5735 5034 c-38 -24 -87 -55 -108 -69 -40 -26 -67 -32 -67 -15 0 6
-4 10 -10 10 -7 0 12 -56 27 -79 2 -3 13 5 26 16 12 11 37 30 55 42 39 27 56
19 80 -39 9 -20 17 -29 20 -22 2 8 -6 28 -18 45 -29 38 -21 53 46 88 39 20 48
30 46 47 -5 30 -16 27 -97 -24z"/>
<path d="M4772 4976 c14 -13 54 -61 88 -107 58 -79 275 -309 292 -309 30 0
-22 151 -83 242 -58 84 -104 119 -243 177 -67 29 -89 27 -54 -3z"/>
<path d="M2665 4946 c-130 -64 -184 -111 -243 -215 -20 -35 -54 -150 -50 -172
5 -29 164 123 239 229 34 48 84 113 111 145 27 31 46 57 41 57 -4 0 -48 -20
-98 -44z"/>
<path d="M1595 4910 c-18 -36 -19 -41 -1 -34 7 3 68 -27 134 -65 67 -39 124
-71 127 -71 3 0 5 5 5 11 0 6 16 38 35 70 37 63 46 119 20 119 -11 0 -15 -12
-15 -44 0 -26 -6 -48 -15 -56 -8 -7 -15 -19 -15 -26 0 -8 -9 -14 -21 -14 -25
0 -208 107 -216 126 -8 22 -21 17 -38 -16z"/>
<path d="M5864 4896 c-3 -8 -19 -19 -34 -25 -16 -5 -56 -28 -90 -51 -42 -28
-67 -39 -80 -35 -25 8 -25 4 1 -40 21 -35 22 -36 33 -14 11 21 199 138 224
139 8 0 12 8 10 18 -4 22 -56 29 -64 8z"/>
<path d="M2975 4880 c8 -13 125 -13 145 0 10 7 -11 10 -68 10 -53 0 -81 -4
-77 -10z"/>
<path d="M4364 4881 c6 -9 -73 -21 -143 -21 -33 0 -42 -3 -34 -11 8 -8 28 -8
75 0 35 6 114 14 176 18 62 3 115 10 118 15 3 4 -40 8 -96 8 -56 0 -99 -4 -96
-9z"/>
<path d="M3240 4860 l-75 -5 55 -7 c74 -10 120 -10 120 1 0 14 -20 16 -100 11z"/>
<path d="M5132 4803 c34 -37 61 -93 82 -173 10 -36 31 -107 47 -159 17 -51 29
-99 27 -107 -2 -7 -23 12 -48 44 -25 31 -84 86 -131 122 -48 36 -106 82 -129
103 -23 20 -46 37 -51 37 -13 0 7 -52 44 -116 39 -65 77 -104 206 -203 45 -35
102 -87 127 -115 l46 -50 -5 190 c-2 109 -9 205 -16 227 -19 60 -92 157 -145
194 -61 42 -91 45 -54 6z"/>
<path d="M2333 4768 c-128 -110 -157 -198 -147 -440 4 -82 11 -148 15 -148 5
0 19 14 31 31 13 17 74 74 136 126 141 118 217 217 238 308 6 28 3 27 -57 -31
-35 -33 -90 -79 -121 -102 -32 -23 -74 -61 -95 -83 -21 -23 -45 -49 -53 -57
-8 -8 -20 -27 -27 -41 -24 -53 -14 12 16 109 17 52 37 129 46 171 10 46 29 97
50 132 40 66 27 76 -32 25z"/>
<path d="M1510 4756 c0 -11 10 -16 32 -16 34 0 29 13 -9 25 -17 5 -23 2 -23
-9z"/>
<path d="M5880 4698 c-11 -24 -20 -61 -20 -83 0 -56 -22 -85 -65 -85 -32 0
-34 3 -42 43 -8 38 -10 40 -15 15 -3 -17 2 -39 13 -58 17 -27 24 -30 68 -30
61 0 75 19 86 110 9 84 18 100 56 100 30 0 50 -27 43 -60 -1 -8 -3 -25 -3 -37
-1 -14 -7 -23 -17 -23 -8 0 -13 -4 -10 -9 9 -13 45 -1 56 18 5 10 5 23 -1 32
-5 7 -9 28 -9 45 0 42 -27 64 -79 64 -40 0 -43 -2 -61 -42z"/>
<path d="M1580 4721 c0 -5 14 -13 32 -16 34 -8 88 -43 88 -57 0 -4 -10 -8 -21
-8 -28 0 -220 -59 -236 -72 -25 -20 -14 -38 21 -38 33 0 82 -16 142 -47 17 -9
37 -13 45 -11 9 4 4 10 -16 18 -77 33 -125 59 -118 63 4 2 42 14 83 26 123 37
199 65 194 72 -2 4 -35 17 -72 30 -37 12 -76 28 -87 35 -22 16 -55 18 -55 5z"/>
<path d="M3155 4690 c-70 -10 -129 -31 -103 -37 9 -2 43 1 74 6 32 6 86 11
120 11 68 0 97 7 88 21 -6 11 -94 10 -179 -1z"/>
<path d="M4196 4692 c-10 -17 22 -22 147 -21 89 1 113 3 87 10 -61 14 -227 23
-234 11z"/>
<path d="M5725 4660 l-30 -7 29 -12 c29 -11 45 -4 46 22 0 8 -2 8 -45 -3z"/>
<path d="M3305 4556 c-11 -7 -34 -17 -51 -20 -18 -4 -40 -16 -50 -27 -16 -18
-16 -19 3 -19 11 0 41 11 67 25 26 14 58 25 72 25 15 0 24 6 24 15 0 19 -39
20 -65 1z"/>
<path d="M4155 4560 c-6 -10 33 -30 58 -30 7 0 21 -7 31 -15 25 -19 79 -20 74
-2 -3 6 -20 13 -38 15 -19 2 -45 12 -58 23 -27 21 -57 25 -67 9z"/>
<path d="M5406 4529 c14 -71 0 -549 -16 -549 -4 0 -13 21 -19 46 -14 56 -56
119 -108 164 -21 18 -71 64 -110 102 -40 39 -73 68 -73 65 0 -3 12 -39 26 -79
31 -87 79 -171 144 -253 75 -96 120 -169 145 -237 22 -60 23 -61 29 -33 3 17
27 93 52 171 75 231 71 372 -19 552 -48 98 -63 112 -51 51z"/>
<path d="M2102 4503 c-7 -16 -23 -46 -37 -68 -26 -43 -42 -100 -55 -204 -11
-84 10 -206 55 -320 19 -47 37 -98 40 -113 14 -58 32 -54 66 14 17 35 71 122
120 194 90 134 122 194 143 276 l13 46 -79 -71 c-132 -119 -190 -200 -209
-288 -6 -27 -14 -49 -19 -49 -4 0 -11 84 -15 188 -10 281 -11 354 -3 390 9 39
-3 42 -20 5z"/>
<path d="M1685 4461 c-19 -8 -19 -8 4 -20 25 -14 49 -2 37 18 -8 12 -13 13
-41 2z"/>
<path d="M5905 4449 c-22 -11 -47 -27 -56 -37 -17 -18 -33 -116 -18 -106 5 3
9 -11 9 -30 0 -19 4 -37 9 -40 5 -4 7 19 4 53 -5 56 -4 62 24 89 43 43 131 61
184 36 28 -12 42 -26 48 -48 l9 -31 1 30 c0 36 -13 56 -59 84 -44 26 -102 27
-155 0z"/>
<path d="M1392 4395 c-7 -14 -12 -33 -12 -42 0 -15 1 -15 13 1 14 19 22 17
258 -60 12 -4 20 4 28 27 12 34 6 53 -8 30 -6 -8 -18 -12 -32 -8 -71 17 -178
50 -203 63 -16 8 -30 14 -31 14 -1 0 -7 -11 -13 -25z"/>
<path d="M6111 4296 c0 -11 -8 -28 -18 -38 -15 -17 -14 -18 15 -18 32 0 39 8
23 26 -5 5 -11 18 -14 29 -4 19 -5 19 -6 1z"/>
<path d="M1351 4247 c-16 -41 -24 -134 -13 -141 6 -4 15 1 20 10 9 16 14 16
73 1 35 -9 90 -19 122 -22 44 -5 57 -10 57 -23 1 -15 2 -15 9 -2 5 8 12 25 15
37 6 20 3 22 -41 28 -233 29 -233 29 -233 70 0 25 5 34 21 38 12 3 18 10 14
16 -11 19 -35 12 -44 -12z"/>
<path d="M6075 4119 c-27 -5 -85 -10 -127 -11 -71 -3 -78 -5 -78 -24 0 -30 5
-32 63 -23 28 5 96 11 150 15 94 6 97 7 97 30 0 27 -14 29 -105 13z"/>
<path d="M5577 4070 c-3 -19 -9 -65 -12 -101 -5 -61 -39 -158 -90 -255 -8 -16
-15 -36 -15 -45 0 -9 -7 -30 -15 -45 -8 -16 -15 -47 -16 -69 -1 -49 -14 -88
-22 -65 -3 8 -8 43 -11 76 -7 79 -34 150 -90 240 -25 40 -57 96 -73 125 l-28
54 -3 -43 c-4 -53 38 -247 89 -413 30 -97 39 -143 39 -198 0 -39 4 -71 9 -71
5 0 18 15 29 33 11 19 51 74 89 123 39 49 80 107 91 129 62 125 89 327 59 446
-9 35 -18 75 -20 89 -3 21 -4 20 -10 -10z"/>
<path d="M1336 4065 c-4 -12 -1 -24 9 -34 13 -13 15 -13 14 -1 0 8 -4 24 -8
34 -7 19 -8 19 -15 1z"/>
<path d="M1937 4015 c-4 -22 -7 -97 -7 -166 0 -191 35 -304 131 -424 22 -27
66 -85 99 -128 l60 -79 0 86 c0 68 7 107 34 198 49 161 96 385 96 455 0 24
-69 -88 -132 -215 l-52 -102 -4 -118 c-2 -64 -8 -121 -13 -126 -5 -6 -9 4 -9
25 0 59 -44 207 -99 332 -29 65 -59 149 -68 185 -27 120 -29 123 -36 77z"/>
<path d="M6041 3993 l-1 -63 -70 0 -70 0 0 -33 c0 -42 9 -51 30 -32 11 10 59
19 143 27 134 12 137 14 118 62 -7 18 -8 18 -14 3 -5 -13 -19 -17 -60 -17
l-54 0 -10 58 -10 57 -2 -62z"/>
<path d="M1308 3938 c-2 -7 -2 -26 2 -43 5 -28 6 -28 12 -7 6 21 11 22 90 21
134 -1 135 -3 17 -95 -109 -84 -138 -118 -125 -150 8 -18 8 -18 18 1 10 19
160 143 238 196 21 14 35 31 32 36 -8 13 -228 37 -244 27 -6 -4 -17 1 -23 10
-9 12 -14 13 -17 4z"/>
<path d="M5974 3781 c-59 -27 -74 -53 -74 -131 1 -52 5 -70 23 -91 50 -60 143
-77 206 -38 38 23 70 58 71 77 0 19 -18 14 -30 -8 -22 -41 -145 -53 -210 -20
-42 21 -57 57 -45 109 9 42 26 52 94 58 112 10 159 -10 171 -73 l8 -39 1 52
c1 45 -2 54 -29 77 -31 25 -87 46 -125 46 -11 0 -39 -9 -61 -19z"/>
<path d="M1560 3680 c20 -5 39 -5 45 1 5 5 -8 9 -35 8 l-45 -1 35 -8z"/>
<path d="M5192 3522 c-21 -66 -30 -122 -47 -317 -15 -165 -27 -240 -50 -304
-14 -38 -25 -73 -25 -79 0 -6 64 32 143 84 179 121 294 234 350 345 44 88 71
205 61 263 l-7 41 -11 -45 c-16 -62 -69 -139 -171 -245 -47 -49 -108 -121
-135 -160 -70 -100 -88 -121 -96 -113 -6 7 -3 19 15 48 37 61 50 180 30 286
-6 32 -16 106 -22 163 l-12 104 -23 -71z"/>
<path d="M1310 3532 c0 -20 4 -31 10 -27 6 3 10 13 10 21 0 11 24 14 134 14
150 0 146 2 146 -82 0 -65 -43 -85 -190 -90 -47 -2 -84 -6 -82 -10 1 -5 2 -22
2 -40 0 -29 1 -30 18 -15 10 9 54 20 111 26 101 13 105 14 139 44 25 23 29 87
9 147 l-12 35 -148 5 -147 5 0 -33z"/>
<path d="M2326 3469 c-50 -246 -46 -351 16 -472 5 -11 6 -22 3 -25 -8 -8 -60
51 -82 93 -9 17 -72 91 -141 165 -68 74 -138 159 -154 188 -17 29 -33 51 -36
48 -12 -13 0 -110 21 -169 57 -158 138 -246 364 -398 91 -61 167 -109 169
-106 3 3 -8 35 -25 71 -17 36 -31 78 -31 93 0 15 -5 46 -10 68 -5 22 -13 99
-19 170 -11 135 -38 320 -51 344 -4 8 -14 -20 -24 -70z"/>
<path d="M5912 3418 c-18 -11 -42 -40 -54 -65 -18 -39 -19 -48 -8 -89 25 -88
121 -133 218 -103 59 19 80 49 88 125 8 74 -6 100 -70 132 -57 29 -130 29
-174 0z m183 -53 c42 -24 45 -28 45 -69 0 -29 -7 -52 -21 -70 -18 -23 -27 -26
-84 -26 -74 0 -110 11 -147 48 -32 29 -35 61 -12 98 40 61 135 69 219 19z"/>
<path d="M1637 3256 c-7 -18 -228 -89 -251 -80 -14 6 -17 2 -14 -17 5 -37 42
-49 148 -48 95 2 95 2 33 10 -34 4 -70 12 -80 18 -23 13 -28 11 142 52 28 7
52 14 53 15 2 1 1 16 -3 33 -7 33 -19 40 -28 17z"/>
<path d="M5081 3214 c0 -11 3 -14 6 -6 3 7 2 16 -1 19 -3 4 -6 -2 -5 -13z"/>
<path d="M5009 3117 c-63 -96 -70 -112 -117 -253 -55 -162 -102 -263 -146
-311 -40 -45 -39 -55 7 -42 18 5 87 21 155 34 181 37 283 88 406 204 65 63
127 147 157 218 30 71 19 79 -29 18 -48 -62 -123 -115 -288 -201 -122 -64
-208 -119 -245 -158 -22 -24 -49 -35 -49 -20 0 3 21 29 46 58 64 69 99 148
119 264 9 53 25 134 34 180 12 55 14 82 7 82 -6 0 -32 -33 -57 -73z"/>
<path d="M2473 3158 c5 -15 19 -83 43 -213 27 -148 64 -228 148 -319 20 -21
35 -41 33 -43 -6 -6 -51 20 -77 45 -47 45 -107 81 -256 154 -131 64 -158 82
-221 144 -78 77 -94 74 -52 -9 94 -184 305 -344 499 -378 30 -5 94 -17 143
-26 48 -9 90 -13 93 -10 4 4 -7 22 -25 42 -48 55 -102 169 -135 285 -26 91
-100 233 -163 313 -22 28 -39 36 -30 15z"/>
<path d="M5778 3048 l-36 -101 21 -29 c17 -23 23 -26 25 -13 2 9 -1 22 -7 29
-7 9 -8 23 -2 42 5 16 12 41 15 57 4 16 13 27 23 27 23 0 217 -72 221 -82 6
-15 31 -8 42 11 16 31 12 41 -15 41 -14 0 -72 16 -130 36 -84 29 -106 41 -112
60 -7 20 -14 9 -45 -78z"/>
<path d="M1630 3095 c0 -8 -26 -38 -57 -67 -91 -85 -113 -111 -113 -135 0 -34
21 -39 42 -10 15 21 28 27 58 27 21 0 51 7 66 15 16 8 46 15 67 15 27 0 37 4
34 13 -5 14 -22 12 -93 -9 -28 -9 -62 -14 -75 -12 -25 3 -26 3 106 121 22 19
38 37 35 40 -3 2 -20 7 -37 10 -25 5 -33 3 -33 -8z"/>
<path d="M1741 2954 c0 -11 3 -14 6 -6 3 7 2 16 -1 19 -3 4 -6 -2 -5 -13z"/>
<path d="M4738 2763 c-40 -37 -120 -113 -178 -168 -104 -100 -204 -165 -254
-165 -12 0 -28 -4 -36 -10 -20 -13 13 -24 195 -67 139 -32 159 -35 275 -31
118 4 129 6 202 40 43 20 104 57 137 82 102 79 158 164 66 102 -83 -56 -154
-72 -490 -107 -55 -5 -109 -15 -121 -20 -11 -6 -34 -9 -50 -7 -26 3 -19 8 58
46 69 34 95 53 128 95 41 51 155 265 146 274 -2 2 -37 -26 -78 -64z"/>
<path d="M2730 2804 c0 -10 110 -204 143 -252 42 -63 112 -105 210 -126 15 -4
25 -11 22 -16 -9 -14 -63 -12 -119 5 -27 8 -99 17 -160 21 -177 9 -285 29
-372 69 -43 20 -82 34 -87 32 -17 -5 130 -133 190 -164 92 -49 204 -76 293
-71 93 5 427 80 402 90 -9 3 -11 7 -4 7 30 2 7 21 -42 35 -64 19 -122 60 -231
165 -159 154 -245 225 -245 205z"/>
<path d="M3930 2622 c-20 -6 -60 -52 -60 -69 0 -8 12 -13 30 -13 23 0 30 -4
30 -20 0 -15 -7 -20 -26 -20 -40 0 -23 -25 19 -28 37 -3 37 -3 36 35 -1 74
-13 120 -29 115z"/>
<path d="M3658 2606 c-10 -7 -18 -25 -18 -39 0 -20 6 -26 27 -29 36 -4 41 -26
8 -38 -21 -8 -25 -13 -16 -24 15 -18 59 -8 66 15 9 27 61 26 75 -1 14 -26 30
-26 30 1 0 17 4 20 23 16 l22 -6 -23 19 c-18 15 -23 28 -20 51 4 46 -15 46
-47 -1 -32 -47 -49 -47 -53 -1 -2 23 -10 35 -28 42 -30 11 -25 11 -46 -5z m28
-44 c-4 -3 -11 -1 -18 6 -8 8 -8 15 3 28 13 16 14 16 17 -5 2 -13 1 -25 -2
-29z"/>
<path d="M3558 2599 c-22 -12 -23 -29 -3 -29 11 0 15 -12 15 -44 0 -25 4 -47
9 -50 12 -8 21 29 21 87 0 49 -8 56 -42 36z"/>
<path d="M3455 2383 c-38 -8 -155 -49 -260 -90 l-190 -76 -105 0 c-81 -1 -120
4 -167 20 -98 33 -78 2 40 -62 72 -40 188 -75 244 -75 62 0 186 31 247 62 33
17 108 63 166 102 116 79 202 114 246 99 l27 -9 -29 -23 c-16 -12 -67 -45
-114 -73 -114 -68 -260 -185 -260 -208 0 -9 47 -60 55 -60 1 0 46 44 101 98
95 95 259 215 309 228 47 12 211 -103 351 -244 39 -40 78 -72 85 -72 8 1 27
12 43 25 l30 24 -53 48 c-70 63 -214 166 -271 194 -83 40 -102 69 -47 69 62 0
133 -29 232 -96 117 -79 199 -119 274 -135 70 -14 233 -7 289 13 69 26 203
111 191 122 -3 4 -22 -1 -43 -9 -20 -9 -72 -20 -116 -26 -114 -16 -192 -1
-365 71 -79 33 -179 69 -221 80 -93 24 -239 26 -299 5 -51 -19 -78 -18 -139 0
-61 19 -159 18 -251 -2z"/>
<path d="M2559 1809 c-30 -11 -44 -54 -30 -92 31 -81 140 -59 141 28 0 37 -7
47 -43 63 -32 14 -33 14 -68 1z"/>
<path d="M4847 1792 c-37 -41 -11 -114 45 -128 54 -12 106 72 74 121 -13 20
-25 25 -60 25 -29 0 -48 -6 -59 -18z"/>
<path d="M2966 1728 c-2 -7 -7 -24 -9 -38 -3 -14 -11 -39 -18 -56 -19 -48 -7
-64 46 -64 51 0 60 15 15 25 -30 6 -43 39 -20 47 16 5 18 90 3 95 -7 3 -15 -1
-17 -9z"/>
<path d="M4406 1700 c-26 -23 -36 -40 -36 -62 0 -33 23 -35 28 -2 7 35 43 64
80 64 43 0 39 24 -5 28 -23 2 -40 -5 -67 -28z"/>
<path d="M3107 1693 c-4 -3 -7 -39 -7 -79 0 -66 2 -72 23 -78 67 -18 98 8 101
81 1 64 -18 73 -22 10 -3 -39 -7 -50 -27 -59 -42 -19 -52 -7 -45 58 4 33 5 62
3 67 -5 9 -17 9 -26 0z"/>
<path d="M4306 1669 c-4 -22 -2 -35 6 -41 9 -5 14 2 16 24 5 43 -14 58 -22 17z"/>
<path d="M4206 1623 c3 -27 10 -52 14 -58 4 -5 10 -23 14 -38 8 -35 26 -26 26
14 0 19 -5 29 -15 29 -8 0 -15 7 -15 15 0 25 25 17 61 -20 45 -46 69 -46 69 0
0 36 -13 47 -24 20 -7 -19 -26 -20 -26 -1 0 8 -8 21 -18 28 -11 7 -24 23 -31
36 -7 14 -21 22 -37 22 -24 0 -25 -2 -18 -47z"/>
<path d="M4483 1663 c-19 -7 -16 -20 7 -26 27 -7 25 -25 -5 -39 -18 -8 -32 -8
-55 2 -34 14 -46 9 -37 -15 5 -11 21 -15 64 -15 62 0 90 11 79 29 -4 6 -2 10
5 9 6 -2 14 3 17 11 3 10 0 12 -12 8 -12 -5 -16 0 -16 18 0 25 -16 31 -47 18z"/>
<path d="M3270 1616 c0 -24 -3 -58 -6 -75 -8 -40 21 -44 31 -3 3 15 13 42 22
59 19 41 11 63 -22 63 -23 0 -25 -4 -25 -44z"/>
<path d="M3376 1642 c-3 -5 -8 -28 -12 -50 -4 -23 -10 -42 -15 -42 -5 0 -9
-11 -9 -24 0 -17 7 -25 24 -28 20 -4 25 0 30 25 14 69 2 150 -18 119z"/>
<path d="M3988 1633 c-15 -4 -18 -16 -18 -62 0 -96 44 -126 118 -81 28 17 32
25 32 63 0 62 -21 87 -73 86 -23 -1 -50 -3 -59 -6z m90 -35 c19 -19 14 -50
-12 -82 l-23 -30 -17 26 c-9 14 -20 42 -23 62 -6 35 -5 36 29 36 19 0 39 -5
46 -12z"/>
<path d="M3460 1620 c0 -5 -7 -10 -15 -10 -11 0 -15 -12 -15 -48 0 -38 5 -53
23 -70 30 -28 79 -28 123 -1 40 24 41 30 14 47 -12 7 -19 16 -16 21 3 4 -8 5
-25 3 -34 -5 -38 -18 -9 -27 40 -13 15 -35 -40 -35 -20 0 -29 6 -34 23 -17 64
7 92 72 82 34 -5 43 -4 40 7 -6 16 -118 24 -118 8z"/>
<path d="M3634 1616 c-3 -8 -4 -27 -2 -43 3 -24 8 -28 41 -31 28 -2 37 -8 37
-22 0 -23 -26 -33 -50 -20 -26 14 -30 13 -30 -10 0 -17 7 -20 48 -20 37 0 52
6 71 25 18 20 27 23 37 14 8 -6 14 -18 14 -25 0 -20 94 -19 114 2 10 10 16 33
16 66 0 61 -16 77 -77 78 -36 0 -44 -4 -62 -34 -12 -18 -21 -41 -21 -49 0 -9
-9 -21 -20 -27 -19 -10 -20 -8 -20 50 l0 60 -45 0 c-30 0 -47 -5 -51 -14z m74
-29 c3 -12 -3 -17 -22 -17 -25 0 -35 18 -19 34 12 12 38 2 41 -17z m170 17
c19 -6 22 -13 22 -55 l0 -49 -38 0 c-51 0 -69 32 -46 79 16 32 23 35 62 25z"/>
<path d="M2932 1457 c-15 -18 -34 -100 -30 -128 5 -36 21 -25 33 22 11 45 31
62 38 32 3 -16 5 -16 11 -2 8 18 -18 89 -32 89 -5 0 -14 -6 -20 -13z"/>
<path d="M4473 1443 c-8 -3 -13 -23 -13 -48 0 -23 -7 -59 -15 -78 -20 -47 -1
-60 31 -21 13 16 23 32 24 37 1 20 70 2 70 -19 0 -8 7 -14 15 -14 8 0 15 5 15
11 0 16 -70 129 -80 129 -5 0 -14 2 -22 4 -7 3 -19 2 -25 -1z m64 -59 c5 -15
-28 -27 -40 -15 -5 5 -6 14 -2 21 8 13 37 9 42 -6z"/>
<path d="M3037 1434 c-4 -4 -7 -18 -7 -32 0 -15 -7 -26 -20 -29 -11 -3 -20
-12 -20 -19 0 -8 -7 -14 -15 -14 -16 0 -19 -17 -9 -44 9 -24 21 -19 33 14 13
39 29 38 33 -2 2 -21 8 -33 18 -33 11 0 14 8 12 30 -2 17 -8 32 -13 33 -17 7
-9 21 14 24 17 2 23 11 25 36 2 17 -1 32 -7 32 -5 0 -16 2 -23 5 -8 3 -17 2
-21 -1z"/>
<path d="M4302 1406 c-26 -8 -32 -15 -28 -31 3 -11 11 -46 18 -77 13 -64 35
-77 40 -25 2 26 8 33 28 35 14 2 29 10 33 18 4 8 17 14 27 14 26 0 25 5 -7 46
-30 36 -50 40 -111 20z m68 -41 c0 -28 -4 -35 -19 -35 -31 0 -43 23 -25 48 24
34 44 28 44 -13z"/>
<path d="M3137 1404 c-4 -4 -7 -38 -7 -75 0 -77 10 -89 74 -89 47 0 66 28 66
97 0 38 -4 53 -14 53 -13 0 -26 -41 -26 -86 0 -26 -33 -49 -56 -40 -11 4 -14
21 -12 72 3 62 -6 86 -25 68z"/>
<path d="M4205 1389 c-5 -6 -7 -41 -6 -76 l2 -63 -30 0 c-29 0 -30 1 -37 60
-4 39 -11 60 -20 60 -21 0 -26 -19 -19 -75 8 -64 37 -91 86 -80 51 11 59 28
52 103 -6 69 -15 93 -28 71z"/>
<path d="M3332 1363 c-9 -17 -32 -113 -32 -133 0 -6 7 -10 15 -10 11 0 15 12
15 44 0 25 4 48 10 51 5 3 23 -22 40 -55 25 -50 35 -61 53 -58 20 3 22 9 25
86 3 96 -14 112 -24 22 -7 -62 -18 -76 -30 -37 -13 45 -45 107 -54 107 -5 0
-13 -8 -18 -17z"/>
<path d="M3502 1359 c-14 -6 -12 -9 11 -18 26 -10 27 -13 27 -81 0 -54 3 -70
14 -70 9 0 17 16 21 43 13 90 17 98 43 109 30 12 23 15 -51 20 -26 2 -55 0
-65 -3z"/>
<path d="M3666 1344 c-3 -9 -6 -47 -6 -86 0 -61 2 -69 18 -66 14 3 17 16 20
79 2 60 0 78 -12 82 -8 3 -17 -1 -20 -9z"/>
<path d="M3870 1313 c0 -73 -13 -84 -42 -37 -14 21 -27 47 -31 57 -4 10 -17
17 -32 17 -25 0 -25 -1 -25 -80 0 -92 15 -107 25 -25 4 30 11 55 15 55 4 0 15
-19 26 -41 24 -54 39 -68 64 -62 18 5 20 14 20 84 0 46 -4 79 -10 79 -5 0 -10
-21 -10 -47z"/>
<path d="M3930 1297 c0 -95 1 -97 76 -97 50 0 64 3 64 15 0 11 -12 15 -50 15
l-49 0 -3 62 c-2 50 -6 63 -20 66 -16 3 -18 -5 -18 -61z"/>
</g>
</svg>
